<mxfile host="app.diagrams.net" modified="2021-07-18T16:31:41.270Z" agent="5.0 (X11)" etag="YEeikrUaqwg-hAUzhQ_e" version="14.9.0" type="github">
  <diagram id="pcUwDq4lTPM9sdh0xb3S" name="Page-1">
    <mxGraphModel dx="2177" dy="793" grid="1" gridSize="10" guides="1" tooltips="1" connect="1" arrows="1" fold="1" page="1" pageScale="1" pageWidth="827" pageHeight="1169" math="0" shadow="0">
      <root>
        <mxCell id="0" />
        <mxCell id="1" parent="0" />
        <mxCell id="2ZMkhPfGc01pIMGcPdUL-2" value="API" style="swimlane;childLayout=stackLayout;horizontal=1;startSize=30;horizontalStack=0;rounded=1;fontSize=14;fontStyle=0;strokeWidth=2;resizeParent=0;resizeLast=1;shadow=0;dashed=0;align=center;whiteSpace=wrap;verticalAlign=middle;" vertex="1" parent="1">
          <mxGeometry x="270" y="260" width="240" height="152" as="geometry" />
        </mxCell>
        <mxCell id="2ZMkhPfGc01pIMGcPdUL-3" value="This is the brain of everything that happens.&#xa;All data is saved inside databases.&#xa;Using Java with Spring.&#xa;All applications contact this API and it then&#xa;separates the work between other apps.&#xa;All messages are sent here and distrubuted&#xa;using websockets to other applications.&#xa;All notifications are distrubuted using API.&#xa;&#xa;&#xa;" style="align=center;strokeColor=none;fillColor=none;spacingLeft=4;fontSize=12;verticalAlign=top;resizable=0;rotatable=0;part=1;" vertex="1" parent="2ZMkhPfGc01pIMGcPdUL-2">
          <mxGeometry y="30" width="240" height="122" as="geometry" />
        </mxCell>
        <mxCell id="2ZMkhPfGc01pIMGcPdUL-4" value="Minecraft Server" style="swimlane;childLayout=stackLayout;horizontal=1;startSize=30;horizontalStack=0;rounded=1;fontSize=14;fontStyle=0;strokeWidth=2;resizeParent=0;resizeLast=1;shadow=0;dashed=0;align=center;html=0;" vertex="1" parent="1">
          <mxGeometry x="-50" y="70" width="160" height="120" as="geometry" />
        </mxCell>
        <mxCell id="2ZMkhPfGc01pIMGcPdUL-5" value="Entertainment :P" style="align=left;strokeColor=none;fillColor=none;spacingLeft=4;fontSize=12;verticalAlign=top;resizable=0;rotatable=0;part=1;" vertex="1" parent="2ZMkhPfGc01pIMGcPdUL-4">
          <mxGeometry y="30" width="160" height="90" as="geometry" />
        </mxCell>
        <mxCell id="2ZMkhPfGc01pIMGcPdUL-6" value="" style="endArrow=classic;startArrow=classic;html=1;exitX=1;exitY=1;exitDx=0;exitDy=0;entryX=0;entryY=0;entryDx=0;entryDy=0;" edge="1" parent="1" source="2ZMkhPfGc01pIMGcPdUL-5" target="2ZMkhPfGc01pIMGcPdUL-2">
          <mxGeometry width="50" height="50" relative="1" as="geometry">
            <mxPoint x="380" y="430" as="sourcePoint" />
            <mxPoint x="430" y="380" as="targetPoint" />
          </mxGeometry>
        </mxCell>
        <mxCell id="2ZMkhPfGc01pIMGcPdUL-7" value="Weblate" style="swimlane;childLayout=stackLayout;horizontal=1;startSize=30;horizontalStack=0;rounded=1;fontSize=14;fontStyle=0;strokeWidth=2;resizeParent=0;resizeLast=1;shadow=0;dashed=0;align=center;html=0;" vertex="1" parent="1">
          <mxGeometry x="370" y="30" width="160" height="120" as="geometry" />
        </mxCell>
        <mxCell id="2ZMkhPfGc01pIMGcPdUL-8" value="Organizes all translations." style="align=left;strokeColor=none;fillColor=none;spacingLeft=4;fontSize=12;verticalAlign=top;resizable=0;rotatable=0;part=1;" vertex="1" parent="2ZMkhPfGc01pIMGcPdUL-7">
          <mxGeometry y="30" width="160" height="90" as="geometry" />
        </mxCell>
        <mxCell id="2ZMkhPfGc01pIMGcPdUL-9" value="" style="endArrow=classic;startArrow=classic;html=1;exitX=0.5;exitY=1;exitDx=0;exitDy=0;entryX=0.5;entryY=0;entryDx=0;entryDy=0;" edge="1" parent="1" source="2ZMkhPfGc01pIMGcPdUL-8" target="2ZMkhPfGc01pIMGcPdUL-2">
          <mxGeometry width="50" height="50" relative="1" as="geometry">
            <mxPoint x="420" y="450" as="sourcePoint" />
            <mxPoint x="470" y="400" as="targetPoint" />
          </mxGeometry>
        </mxCell>
        <mxCell id="2ZMkhPfGc01pIMGcPdUL-10" value="Notion" style="swimlane;childLayout=stackLayout;horizontal=1;startSize=30;horizontalStack=0;rounded=1;fontSize=14;fontStyle=0;strokeWidth=2;resizeParent=0;resizeLast=1;shadow=0;dashed=0;align=center;html=0;" vertex="1" parent="1">
          <mxGeometry x="570" y="70" width="160" height="120" as="geometry" />
        </mxCell>
        <mxCell id="2ZMkhPfGc01pIMGcPdUL-11" value="Documentation&#xa;Task manager&#xa;" style="align=left;strokeColor=none;fillColor=none;spacingLeft=4;fontSize=12;verticalAlign=top;resizable=0;rotatable=0;part=1;" vertex="1" parent="2ZMkhPfGc01pIMGcPdUL-10">
          <mxGeometry y="30" width="160" height="90" as="geometry" />
        </mxCell>
        <mxCell id="2ZMkhPfGc01pIMGcPdUL-12" value="" style="endArrow=classic;startArrow=classic;html=1;exitX=1;exitY=0;exitDx=0;exitDy=0;" edge="1" parent="1" source="2ZMkhPfGc01pIMGcPdUL-2">
          <mxGeometry width="50" height="50" relative="1" as="geometry">
            <mxPoint x="510" y="250" as="sourcePoint" />
            <mxPoint x="570" y="190" as="targetPoint" />
          </mxGeometry>
        </mxCell>
        <mxCell id="2ZMkhPfGc01pIMGcPdUL-13" value="Passport" style="swimlane;childLayout=stackLayout;horizontal=1;startSize=30;horizontalStack=0;rounded=1;fontSize=14;fontStyle=0;strokeWidth=2;resizeParent=0;resizeLast=1;shadow=0;dashed=0;align=center;html=0;" vertex="1" parent="1">
          <mxGeometry x="600" y="276" width="160" height="120" as="geometry" />
        </mxCell>
        <mxCell id="2ZMkhPfGc01pIMGcPdUL-14" value="Takes care of oauth" style="align=left;strokeColor=none;fillColor=none;spacingLeft=4;fontSize=12;verticalAlign=top;resizable=0;rotatable=0;part=1;" vertex="1" parent="2ZMkhPfGc01pIMGcPdUL-13">
          <mxGeometry y="30" width="160" height="90" as="geometry" />
        </mxCell>
        <mxCell id="2ZMkhPfGc01pIMGcPdUL-15" value="" style="endArrow=classic;startArrow=classic;html=1;entryX=0;entryY=0.5;entryDx=0;entryDy=0;exitX=1.008;exitY=0.361;exitDx=0;exitDy=0;exitPerimeter=0;" edge="1" parent="1" source="2ZMkhPfGc01pIMGcPdUL-3" target="2ZMkhPfGc01pIMGcPdUL-13">
          <mxGeometry width="50" height="50" relative="1" as="geometry">
            <mxPoint x="420" y="450" as="sourcePoint" />
            <mxPoint x="470" y="400" as="targetPoint" />
          </mxGeometry>
        </mxCell>
        <mxCell id="2ZMkhPfGc01pIMGcPdUL-16" value="Translations bot" style="swimlane;childLayout=stackLayout;horizontal=1;startSize=30;horizontalStack=0;rounded=1;fontSize=14;fontStyle=0;strokeWidth=2;resizeParent=0;resizeLast=1;shadow=0;dashed=0;align=center;html=0;" vertex="1" parent="1">
          <mxGeometry x="414" y="670" width="160" height="120" as="geometry" />
        </mxCell>
        <mxCell id="2ZMkhPfGc01pIMGcPdUL-17" value="Takes care of creating todo&#xa;list using discord.&#xa;Shows status of translations&#xa;projects.&#xa;Also manages report&#xa;translations.&#xa;" style="align=left;strokeColor=none;fillColor=none;spacingLeft=4;fontSize=12;verticalAlign=top;resizable=0;rotatable=0;part=1;" vertex="1" parent="2ZMkhPfGc01pIMGcPdUL-16">
          <mxGeometry y="30" width="160" height="90" as="geometry" />
        </mxCell>
        <mxCell id="2ZMkhPfGc01pIMGcPdUL-20" value="" style="endArrow=classic;startArrow=classic;html=1;exitX=0.5;exitY=0;exitDx=0;exitDy=0;" edge="1" parent="1" source="2ZMkhPfGc01pIMGcPdUL-16" target="2ZMkhPfGc01pIMGcPdUL-3">
          <mxGeometry width="50" height="50" relative="1" as="geometry">
            <mxPoint x="370" y="580" as="sourcePoint" />
            <mxPoint x="470" y="420" as="targetPoint" />
          </mxGeometry>
        </mxCell>
        <mxCell id="2ZMkhPfGc01pIMGcPdUL-21" value="Music bot" style="swimlane;childLayout=stackLayout;horizontal=1;startSize=30;horizontalStack=0;rounded=1;fontSize=14;fontStyle=0;strokeWidth=2;resizeParent=0;resizeLast=1;shadow=0;dashed=0;align=center;html=0;" vertex="1" parent="1">
          <mxGeometry x="640" y="440" width="160" height="120" as="geometry" />
        </mxCell>
        <mxCell id="2ZMkhPfGc01pIMGcPdUL-22" value="Standalone application for&#xa;music." style="align=left;strokeColor=none;fillColor=none;spacingLeft=4;fontSize=12;verticalAlign=top;resizable=0;rotatable=0;part=1;" vertex="1" parent="2ZMkhPfGc01pIMGcPdUL-21">
          <mxGeometry y="30" width="160" height="90" as="geometry" />
        </mxCell>
        <mxCell id="2ZMkhPfGc01pIMGcPdUL-23" value="Administration bot" style="swimlane;childLayout=stackLayout;horizontal=1;startSize=30;horizontalStack=0;rounded=1;fontSize=14;fontStyle=0;strokeWidth=2;resizeParent=0;resizeLast=1;shadow=0;dashed=0;align=center;html=0;" vertex="1" parent="1">
          <mxGeometry x="590" y="650" width="180" height="120" as="geometry" />
        </mxCell>
        <mxCell id="2ZMkhPfGc01pIMGcPdUL-24" value="Takes care of all administration&#xa;throughout discord.&#xa;logs, errors, system status,&#xa;discord sided permissions&#xa;(discord permissions are&#xa;managed automatically)&#xa;" style="align=left;strokeColor=none;fillColor=none;spacingLeft=4;fontSize=12;verticalAlign=top;resizable=0;rotatable=0;part=1;" vertex="1" parent="2ZMkhPfGc01pIMGcPdUL-23">
          <mxGeometry y="30" width="180" height="90" as="geometry" />
        </mxCell>
        <mxCell id="2ZMkhPfGc01pIMGcPdUL-26" value="Messaging bot" style="swimlane;childLayout=stackLayout;horizontal=1;startSize=30;horizontalStack=0;rounded=1;fontSize=14;fontStyle=0;strokeWidth=2;resizeParent=0;resizeLast=1;shadow=0;dashed=0;align=center;html=0;" vertex="1" parent="1">
          <mxGeometry x="10" y="550" width="160" height="120" as="geometry" />
        </mxCell>
        <mxCell id="2ZMkhPfGc01pIMGcPdUL-27" value="Takes care of forwading&#xa;messages to discord and&#xa;the other way around.&#xa;Creates websockets for&#xa;messages.&#xa;" style="align=left;strokeColor=none;fillColor=none;spacingLeft=4;fontSize=12;verticalAlign=top;resizable=0;rotatable=0;part=1;" vertex="1" parent="2ZMkhPfGc01pIMGcPdUL-26">
          <mxGeometry y="30" width="160" height="90" as="geometry" />
        </mxCell>
        <mxCell id="2ZMkhPfGc01pIMGcPdUL-31" value="" style="endArrow=classic;startArrow=classic;html=1;entryX=-0.004;entryY=0.951;entryDx=0;entryDy=0;entryPerimeter=0;exitX=0.5;exitY=0;exitDx=0;exitDy=0;" edge="1" parent="1" source="2ZMkhPfGc01pIMGcPdUL-26" target="2ZMkhPfGc01pIMGcPdUL-3">
          <mxGeometry width="50" height="50" relative="1" as="geometry">
            <mxPoint x="420" y="600" as="sourcePoint" />
            <mxPoint x="470" y="550" as="targetPoint" />
          </mxGeometry>
        </mxCell>
        <mxCell id="2ZMkhPfGc01pIMGcPdUL-32" value="" style="endArrow=classic;startArrow=classic;html=1;entryX=0.5;entryY=0;entryDx=0;entryDy=0;exitX=1;exitY=1;exitDx=0;exitDy=0;" edge="1" parent="1" source="2ZMkhPfGc01pIMGcPdUL-3" target="2ZMkhPfGc01pIMGcPdUL-23">
          <mxGeometry width="50" height="50" relative="1" as="geometry">
            <mxPoint x="420" y="600" as="sourcePoint" />
            <mxPoint x="470" y="550" as="targetPoint" />
          </mxGeometry>
        </mxCell>
        <mxCell id="2ZMkhPfGc01pIMGcPdUL-33" value="Economy bot" style="swimlane;childLayout=stackLayout;horizontal=1;startSize=30;horizontalStack=0;rounded=1;fontSize=14;fontStyle=0;strokeWidth=2;resizeParent=0;resizeLast=1;shadow=0;dashed=0;align=center;html=0;" vertex="1" parent="1">
          <mxGeometry x="220" y="640" width="160" height="120" as="geometry" />
        </mxCell>
        <mxCell id="2ZMkhPfGc01pIMGcPdUL-34" value="Manages shop and all&#xa;coins from discord&#39;s side.&#xa;" style="align=left;strokeColor=none;fillColor=none;spacingLeft=4;fontSize=12;verticalAlign=top;resizable=0;rotatable=0;part=1;" vertex="1" parent="2ZMkhPfGc01pIMGcPdUL-33">
          <mxGeometry y="30" width="160" height="90" as="geometry" />
        </mxCell>
        <mxCell id="2ZMkhPfGc01pIMGcPdUL-35" value="" style="endArrow=classic;startArrow=classic;html=1;entryX=0.25;entryY=1;entryDx=0;entryDy=0;exitX=0.5;exitY=0;exitDx=0;exitDy=0;" edge="1" parent="1" source="2ZMkhPfGc01pIMGcPdUL-33" target="2ZMkhPfGc01pIMGcPdUL-3">
          <mxGeometry width="50" height="50" relative="1" as="geometry">
            <mxPoint x="420" y="600" as="sourcePoint" />
            <mxPoint x="470" y="550" as="targetPoint" />
          </mxGeometry>
        </mxCell>
        <mxCell id="2ZMkhPfGc01pIMGcPdUL-36" value="Databases" style="swimlane;childLayout=stackLayout;horizontal=1;startSize=30;horizontalStack=0;rounded=1;fontSize=14;fontStyle=0;strokeWidth=2;resizeParent=0;resizeLast=1;shadow=0;dashed=0;align=center;html=0;" vertex="1" parent="1">
          <mxGeometry x="-220" y="230" width="360" height="240" as="geometry" />
        </mxCell>
        <mxCell id="2ZMkhPfGc01pIMGcPdUL-41" value="Economy" style="swimlane;childLayout=stackLayout;horizontal=1;startSize=30;horizontalStack=0;rounded=1;fontSize=14;fontStyle=0;strokeWidth=2;resizeParent=0;resizeLast=1;shadow=0;dashed=0;align=center;html=0;" vertex="1" parent="2ZMkhPfGc01pIMGcPdUL-36">
          <mxGeometry y="30" width="360" height="80" as="geometry">
            <mxRectangle y="30" width="360" height="120" as="alternateBounds" />
          </mxGeometry>
        </mxCell>
        <mxCell id="2ZMkhPfGc01pIMGcPdUL-42" value="coins&#xa;transactions&#xa;store&#xa;" style="align=left;strokeColor=none;fillColor=none;spacingLeft=4;fontSize=12;verticalAlign=top;resizable=0;rotatable=0;part=1;" vertex="1" parent="2ZMkhPfGc01pIMGcPdUL-41">
          <mxGeometry y="30" width="360" height="50" as="geometry" />
        </mxCell>
        <mxCell id="2ZMkhPfGc01pIMGcPdUL-46" value="Security" style="swimlane;childLayout=stackLayout;horizontal=1;startSize=30;horizontalStack=0;rounded=1;fontSize=14;fontStyle=0;strokeWidth=2;resizeParent=0;resizeLast=1;shadow=0;dashed=0;align=center;html=0;" vertex="1" parent="2ZMkhPfGc01pIMGcPdUL-36">
          <mxGeometry y="110" width="360" height="60" as="geometry">
            <mxRectangle y="300" width="360" height="30" as="alternateBounds" />
          </mxGeometry>
        </mxCell>
        <mxCell id="2ZMkhPfGc01pIMGcPdUL-47" value="roles and permissions" style="align=left;strokeColor=none;fillColor=none;spacingLeft=4;fontSize=12;verticalAlign=top;resizable=0;rotatable=0;part=1;" vertex="1" parent="2ZMkhPfGc01pIMGcPdUL-46">
          <mxGeometry y="30" width="360" height="30" as="geometry" />
        </mxCell>
        <mxCell id="2ZMkhPfGc01pIMGcPdUL-43" value="Messaging" style="swimlane;childLayout=stackLayout;horizontal=1;startSize=30;horizontalStack=0;rounded=1;fontSize=14;fontStyle=0;strokeWidth=2;resizeParent=0;resizeLast=1;shadow=0;dashed=0;align=center;html=0;" vertex="1" parent="2ZMkhPfGc01pIMGcPdUL-36">
          <mxGeometry y="170" width="360" height="70" as="geometry">
            <mxRectangle y="170" width="360" height="250" as="alternateBounds" />
          </mxGeometry>
        </mxCell>
        <mxCell id="2ZMkhPfGc01pIMGcPdUL-44" value="stores messages" style="align=left;strokeColor=none;fillColor=none;spacingLeft=4;fontSize=12;verticalAlign=top;resizable=0;rotatable=0;part=1;" vertex="1" parent="2ZMkhPfGc01pIMGcPdUL-43">
          <mxGeometry y="30" width="360" height="40" as="geometry" />
        </mxCell>
        <mxCell id="2ZMkhPfGc01pIMGcPdUL-45" value="" style="shape=flexArrow;endArrow=classic;startArrow=classic;html=1;entryX=0;entryY=0.328;entryDx=0;entryDy=0;entryPerimeter=0;exitX=1;exitY=0.25;exitDx=0;exitDy=0;" edge="1" parent="1" source="2ZMkhPfGc01pIMGcPdUL-46" target="2ZMkhPfGc01pIMGcPdUL-3">
          <mxGeometry width="100" height="100" relative="1" as="geometry">
            <mxPoint x="132" y="400" as="sourcePoint" />
            <mxPoint x="490" y="360" as="targetPoint" />
          </mxGeometry>
        </mxCell>
        <mxCell id="2ZMkhPfGc01pIMGcPdUL-48" value="Website" style="swimlane;childLayout=stackLayout;horizontal=1;startSize=30;horizontalStack=0;rounded=1;fontSize=14;fontStyle=0;strokeWidth=2;resizeParent=0;resizeLast=1;shadow=0;dashed=0;align=center;html=0;" vertex="1" parent="1">
          <mxGeometry x="170" y="30" width="160" height="120" as="geometry" />
        </mxCell>
        <mxCell id="2ZMkhPfGc01pIMGcPdUL-49" value="Everything is here." style="align=left;strokeColor=none;fillColor=none;spacingLeft=4;fontSize=12;verticalAlign=top;resizable=0;rotatable=0;part=1;" vertex="1" parent="2ZMkhPfGc01pIMGcPdUL-48">
          <mxGeometry y="30" width="160" height="90" as="geometry" />
        </mxCell>
        <mxCell id="2ZMkhPfGc01pIMGcPdUL-50" value="" style="endArrow=classic;startArrow=classic;html=1;entryX=0.5;entryY=1;entryDx=0;entryDy=0;exitX=0.25;exitY=0;exitDx=0;exitDy=0;" edge="1" parent="1" source="2ZMkhPfGc01pIMGcPdUL-2" target="2ZMkhPfGc01pIMGcPdUL-49">
          <mxGeometry width="50" height="50" relative="1" as="geometry">
            <mxPoint x="400" y="320" as="sourcePoint" />
            <mxPoint x="450" y="270" as="targetPoint" />
          </mxGeometry>
        </mxCell>
      </root>
    </mxGraphModel>
  </diagram>
</mxfile>
